<svg id="Group_1" data-name="Group 1" xmlns="http://www.w3.org/2000/svg" width="77.391" height="31" viewBox="0 0 77.391 31">
  <path id="Path_1" data-name="Path 1" d="M46.478,3.87a11.609,11.609,0,0,1,0,23.217h-15.5a11.609,11.609,0,1,1,0-23.217Zm0-3.87h-15.5A15.5,15.5,0,0,0,31,31H46.5a15.5,15.5,0,1,0-.022-31Z" fill="#4eef61"/>
  <path id="Path_2" data-name="Path 2" d="M10.091,18.072v-.111a5.755,5.755,0,0,0,1.319-.99,6.555,6.555,0,0,0,.967-1.406,4.529,4.529,0,0,0,.463-2.154,5.045,5.045,0,0,0-.484-2.22,5.288,5.288,0,0,0-1.406-1.8A6.734,6.734,0,0,0,8.686,8.179a10.094,10.094,0,0,0-3.08-.44c-.88,0-1.671.022-2.331.088q-1.022.1-1.715.2a9.85,9.85,0,0,0-1.429.264L0,8.311V23.239H3.87V19.105H6.706l2.089,4.133h4.111Zm-6.222-6.9c.044-.022.088-.022.132-.044.066-.022.154-.044.22-.066a2.122,2.122,0,0,1,.505-.088c.242-.022.528-.044.857-.044a3.811,3.811,0,0,1,2.528.726,2.282,2.282,0,0,1,.836,1.759,2.442,2.442,0,0,1-.792,1.869,3.3,3.3,0,0,1-2.243.7H3.849V11.169Z" fill="#2e2236"/>
  <path id="Path_3" data-name="Path 3" d="M77.082,16.577a4.131,4.131,0,0,0-.99-1.275,4.3,4.3,0,0,0-1.385-.792,12.045,12.045,0,0,0-1.583-.484c-.528-.132-1.055-.242-1.561-.33a8.886,8.886,0,0,1-1.319-.33,3.038,3.038,0,0,1-.925-.484.865.865,0,0,1-.33-.7,1.013,1.013,0,0,1,.44-.769,2.22,2.22,0,0,1,1.385-.352,4.978,4.978,0,0,1,1.628.242,5.325,5.325,0,0,1,1.121.549,4.041,4.041,0,0,1,.836.769l.088.111,2.352-2.441-.088-.088a6.285,6.285,0,0,0-1.473-1.209,9.972,9.972,0,0,0-1.8-.814,7.272,7.272,0,0,0-2.485-.4,7.934,7.934,0,0,0-2.506.352,6.111,6.111,0,0,0-1.847.967,4.192,4.192,0,0,0-1.209,1.451,4.035,4.035,0,0,0-.4,1.759,4.421,4.421,0,0,0,.374,1.913A4.609,4.609,0,0,0,66.462,15.5a4.294,4.294,0,0,0,1.385.791,12.03,12.03,0,0,0,1.583.484c.528.132,1.055.242,1.561.33a7.941,7.941,0,0,1,1.3.33,3.038,3.038,0,0,1,.925.484.865.865,0,0,1,.33.7,1.138,1.138,0,0,1-.549.9,2.927,2.927,0,0,1-1.8.44,5.657,5.657,0,0,1-1.957-.286,4.594,4.594,0,0,1-1.275-.638,2.937,2.937,0,0,1-.9-.9l-.088-.132-2.485,2.374.066.088a6.58,6.58,0,0,0,1.6,1.385,10.426,10.426,0,0,0,1.979.945,8.313,8.313,0,0,0,2.812.44,9.805,9.805,0,0,0,2.812-.374,5.71,5.71,0,0,0,2-1.011,4.03,4.03,0,0,0,1.209-1.517,4.482,4.482,0,0,0,.4-1.891,3.437,3.437,0,0,0-.286-1.869" fill="#2e2236"/>
  <path id="Path_4" data-name="Path 4" d="M33.573,7.739H29.7v15.5h3.87Z" fill="#2e2236"/>
  <path id="Path_5" data-name="Path 5" d="M37.442,7.739v3.87h3.87v11.63h3.87V11.608H49.05V7.739Z" fill="#2e2236"/>
</svg>
