<svg id="Group_1" data-name="Group 1" xmlns="http://www.w3.org/2000/svg" width="139.804" height="72.136" viewBox="0 0 139.804 72.136">
  <path id="Path_1" data-name="Path 1" d="M29.14,65.566a3.358,3.358,0,0,0-2.435.962,3.222,3.222,0,0,0,0,4.645,3.358,3.358,0,0,0,2.435.962,3.674,3.674,0,0,0,1.692-.435,4.1,4.1,0,0,0,.853-.686c.048-.057.083-.105.11-.141l-.813-.857-.07.092a1.38,1.38,0,0,1-.229.229,3.737,3.737,0,0,1-.365.264,2.078,2.078,0,0,1-.523.224,2.312,2.312,0,0,1-.655.092,2.07,2.07,0,1,1,0-4.14,2.066,2.066,0,0,1,.628.1,2.324,2.324,0,0,1,.5.215,2.282,2.282,0,0,1,.347.268,2.328,2.328,0,0,1,.207.22c.031.044.057.075.075.1l.857-.857-.1-.132a2.191,2.191,0,0,0-.321-.312,5.107,5.107,0,0,0-.51-.369,2.875,2.875,0,0,0-.734-.312A3.343,3.343,0,0,0,29.14,65.566Zm11.474,3.779H39.08l.769-2.07Zm.448,1.169L41.6,72h1.441l-2.479-6.3H39.128L36.65,72h1.441l.541-1.485ZM48.445,72H49.8V69.794h1.169L52.18,72h1.441l-1.349-2.386.114-.062a1.3,1.3,0,0,0,.286-.2A2.5,2.5,0,0,0,53,69.007a1.873,1.873,0,0,0,.277-.532,2.061,2.061,0,0,0,.119-.708,1.97,1.97,0,0,0-.611-1.468,2.131,2.131,0,0,0-1.551-.6H48.44Zm3.6-4.232a.776.776,0,0,1-.242.58.845.845,0,0,1-.615.233H49.794V66.915h1.393a.852.852,0,0,1,.615.242A.825.825,0,0,1,52.044,67.768ZM59.334,72h1.354V69.794h1.169L63.07,72h1.441l-1.349-2.386.114-.062a1.292,1.292,0,0,0,.286-.2,2.493,2.493,0,0,0,.325-.347,1.871,1.871,0,0,0,.277-.532,2.061,2.061,0,0,0,.119-.708,1.97,1.97,0,0,0-.611-1.468,2.131,2.131,0,0,0-1.551-.6H59.33Zm3.6-4.232a.776.776,0,0,1-.242.58.845.845,0,0,1-.615.233H60.684V66.915h1.393a.852.852,0,0,1,.615.242A.825.825,0,0,1,62.934,67.768Zm8.644,3.019v-1.4H74.14V68.177H71.578V66.915H74.86V65.7H70.224V72h4.729V70.787ZM80.71,72h1.354V65.7H80.71Zm7.471,0h1.354V69.794H90.7L91.915,72h1.441l-1.349-2.386.114-.062a1.292,1.292,0,0,0,.286-.2,2.493,2.493,0,0,0,.325-.347,1.871,1.871,0,0,0,.277-.532,2.062,2.062,0,0,0,.119-.708,1.97,1.97,0,0,0-.611-1.468,2.131,2.131,0,0,0-1.551-.6H88.176Zm3.6-4.232a.776.776,0,0,1-.242.58.845.845,0,0,1-.615.233H89.529V66.915h1.393a.852.852,0,0,1,.615.242A.825.825,0,0,1,91.779,67.768Zm10.534,1.578h-1.534l.769-2.07Zm.448,1.169L103.3,72h1.441l-2.478-6.3h-1.437L98.349,72H99.79l.541-1.485Zm10.13-.36a.714.714,0,0,1-.277.58,1.147,1.147,0,0,1-.76.229,1.79,1.79,0,0,1-.809-.189,2.042,2.042,0,0,1-.5-.3,2.432,2.432,0,0,1-.171-.185l-.813.809.1.11a1.628,1.628,0,0,0,.29.259,3.293,3.293,0,0,0,.466.3,2.749,2.749,0,0,0,.676.259,3.4,3.4,0,0,0,.848.105,2.575,2.575,0,0,0,1.754-.554,1.808,1.808,0,0,0,.633-1.428,1.6,1.6,0,0,0-.321-1.024,1.8,1.8,0,0,0-.778-.58c-.308-.114-.611-.22-.914-.308a3.237,3.237,0,0,1-.773-.321.583.583,0,0,1-.321-.51.607.607,0,0,1,.237-.479.936.936,0,0,1,.62-.2,1.432,1.432,0,0,1,.624.149,1.8,1.8,0,0,1,.4.242c.061.062.109.11.145.154l.808-.857-.079-.088a1.294,1.294,0,0,0-.246-.22,3.1,3.1,0,0,0-.4-.246,2.862,2.862,0,0,0-.594-.211,2.969,2.969,0,0,0-.747-.088,2.317,2.317,0,0,0-1.59.54,1.682,1.682,0,0,0-.616,1.305,1.619,1.619,0,0,0,.321,1.024,1.852,1.852,0,0,0,.778.58c.3.114.606.215.914.3a3.044,3.044,0,0,1,.778.325A.577.577,0,0,1,112.891,70.154Z" fill="#fff"/>
  <path id="Path_2" data-name="Path 2" d="M83.96,6.99a20.97,20.97,0,1,1,0,41.94h-28a20.97,20.97,0,0,1,0-41.94Zm0-6.99h-28A28,28,0,0,0,56,56H84A28,28,0,1,0,83.96,0Z" fill="#4eef61"/>
  <path id="Path_3" data-name="Path 3" d="M18.229,32.647v-.2a10.394,10.394,0,0,0,2.383-1.787,11.842,11.842,0,0,0,1.747-2.54,8.182,8.182,0,0,0,.836-3.892,9.115,9.115,0,0,0-.874-4.011,9.556,9.556,0,0,0-2.54-3.257,12.166,12.166,0,0,0-4.091-2.185,18.233,18.233,0,0,0-5.564-.794c-1.589,0-3.018.039-4.211.159q-1.847.179-3.1.358a17.772,17.772,0,0,0-2.582.477L0,15.013V41.98H6.99V34.513h5.123l3.773,7.467h7.427ZM6.99,20.175c.08-.039.159-.039.238-.08.119-.039.278-.08.4-.119a3.837,3.837,0,0,1,.913-.159c.437-.04.953-.08,1.549-.08a6.884,6.884,0,0,1,4.567,1.311,4.123,4.123,0,0,1,1.51,3.177,4.412,4.412,0,0,1-1.43,3.376,5.97,5.97,0,0,1-4.051,1.27H6.952v-8.7Z" fill="#fff"/>
  <path id="Path_4" data-name="Path 4" d="M139.245,29.946a7.464,7.464,0,0,0-1.788-2.3,7.756,7.756,0,0,0-2.5-1.43,21.745,21.745,0,0,0-2.86-.874c-.953-.238-1.906-.437-2.819-.6a16.025,16.025,0,0,1-2.384-.6,5.5,5.5,0,0,1-1.671-.874,1.562,1.562,0,0,1-.6-1.27,1.83,1.83,0,0,1,.794-1.39,4.011,4.011,0,0,1,2.5-.636,8.988,8.988,0,0,1,2.941.437,9.619,9.619,0,0,1,2.026.993A7.294,7.294,0,0,1,134.4,22.8l.159.2,4.25-4.409-.159-.159a11.356,11.356,0,0,0-2.662-2.185,18.014,18.014,0,0,0-3.256-1.471,13.144,13.144,0,0,0-4.489-.715,14.33,14.33,0,0,0-4.527.636,11.048,11.048,0,0,0-3.337,1.747,7.57,7.57,0,0,0-2.184,2.621,7.293,7.293,0,0,0-.715,3.177,7.987,7.987,0,0,0,.675,3.455A8.344,8.344,0,0,0,120.06,28a7.758,7.758,0,0,0,2.5,1.43,21.759,21.759,0,0,0,2.86.874c.953.238,1.906.437,2.819.6a14.292,14.292,0,0,1,2.343.6,5.493,5.493,0,0,1,1.672.874,1.563,1.563,0,0,1,.6,1.27,2.057,2.057,0,0,1-.992,1.628,5.291,5.291,0,0,1-3.257.794,10.216,10.216,0,0,1-3.535-.516,8.3,8.3,0,0,1-2.3-1.152,5.31,5.31,0,0,1-1.628-1.628l-.159-.238-4.489,4.288.119.159a11.878,11.878,0,0,0,2.9,2.5,18.834,18.834,0,0,0,3.574,1.708,15.017,15.017,0,0,0,5.081.794,17.7,17.7,0,0,0,5.08-.675,10.316,10.316,0,0,0,3.614-1.827,7.282,7.282,0,0,0,2.184-2.741,8.088,8.088,0,0,0,.715-3.415,6.21,6.21,0,0,0-.516-3.376" fill="#fff"/>
  <path id="Path_5" data-name="Path 5" d="M60.647,13.98h-6.99v28h6.99Z" fill="#fff"/>
  <path id="Path_6" data-name="Path 6" d="M67.637,13.98v6.99h6.99V41.98h6.99V20.97h6.99V13.98Z" fill="#fff"/>
</svg>
